<?xml version="1.0" standalone="no"?><!DOCTYPE svg PUBLIC "-//W3C//DTD SVG 1.1//EN" "http://www.w3.org/Graphics/SVG/1.1/DTD/svg11.dtd"><svg t="1586425729062" class="icon" viewBox="0 0 1024 1024" version="1.1" xmlns="http://www.w3.org/2000/svg" p-id="3146" xmlns:xlink="http://www.w3.org/1999/xlink" width="48" height="48"><defs><style type="text/css"></style></defs><path d="M515.2 928.7H259.1c-71.1 0-128.9-52.3-128.9-116.6V212.6C130.2 148.3 188 96 259.1 96h515.5c71.1 0 128.9 52.3 128.9 116.6v370.7c0 16.4-13.3 29.7-29.7 29.7s-29.7-13.3-29.7-29.7V212.6c0-31-31.8-57.1-69.4-57.1H259.1c-37.6 0-69.4 26.2-69.4 57.1v599.5c0 31 31.8 57.1 69.4 57.1h256.1c16.4 0 29.7 13.3 29.7 29.7 0 16.5-13.3 29.8-29.7 29.8z" p-id="3147" fill="#1296db"></path><path d="M715.1 329H323.5c-13.6 0-24.8-11.2-24.8-24.8 0-13.6 11.2-24.8 24.8-24.8h391.6c13.6 0 24.8 11.2 24.8 24.8 0 13.6-11.2 24.8-24.8 24.8zM715.1 495H323.5c-13.6 0-24.8-11.2-24.8-24.8 0-13.6 11.2-24.8 24.8-24.8h391.6c13.6 0 24.8 11.2 24.8 24.8 0 13.7-11.2 24.8-24.8 24.8zM477.2 661.1H318.6c-13.6 0-24.8-11.2-24.8-24.8 0-13.6 11.2-24.8 24.8-24.8h158.6c13.6 0 24.8 11.2 24.8 24.8 0 13.6-11.2 24.8-24.8 24.8zM676.9 899c-6.4 0-12.8-2-18.2-6.3l-108.2-84.2c-13-10.1-15.3-28.8-5.2-41.7 10.1-13 28.8-15.3 41.7-5.2l85.4 66.4 131.9-161c10.4-12.7 29.1-14.6 41.9-4.1 12.7 10.4 14.6 29.2 4.1 41.9L699.9 888.1c-5.8 7.2-14.4 10.9-23 10.9z" p-id="3148" fill="#1296db"></path></svg>