<?xml version="1.0" standalone="no"?><!DOCTYPE svg PUBLIC "-//W3C//DTD SVG 1.1//EN" "http://www.w3.org/Graphics/SVG/1.1/DTD/svg11.dtd"><svg t="1586425876869" class="icon" viewBox="0 0 1024 1024" version="1.1" xmlns="http://www.w3.org/2000/svg" p-id="5091" xmlns:xlink="http://www.w3.org/1999/xlink" width="48" height="48"><defs><style type="text/css"></style></defs><path d="M886.88 63.616H274.88a99.04 99.04 0 0 0-98.944 98.928V572h42.784V162.528a56.208 56.208 0 0 1 56.144-56.144h612a56.208 56.208 0 0 1 56.16 56.144v672.224a56.208 56.208 0 0 1-56.16 56.16h-423.52v42.784H886.88a99.072 99.072 0 0 0 98.944-98.944V162.528a99.088 99.088 0 0 0-98.944-98.912z" p-id="5092" fill="#13227a"></path><path d="M303.392 253.232h540.896v42.784H303.392v-42.784zM303.392 467.136h540.896v42.784H303.392v-42.784zM536.4 681.056h307.872v42.784H536.4v-42.784zM303.392 590.784c-94.592 0-171.456 76.88-171.456 171.44 0 94.624 76.864 171.472 171.456 171.472 94.608 0 171.472-76.848 171.456-171.472 0-94.56-76.848-171.44-171.456-171.44z m0 305.552c-74.064 0-134.112-60.032-134.112-134.112s60.032-134.112 134.112-134.112 134.112 60.032 134.112 134.112-60.048 134.112-134.112 134.112z" p-id="5093" fill="#13227a"></path><path d="M277.408 792.256V763.2h131.392v29.04h-131.392z" p-id="5094" fill="#13227a"></path><path d="M307.44 792.256h-30.032v-125.248h30.032v125.248z" p-id="5095" fill="#13227a"></path></svg>