<?xml version="1.0" standalone="no"?><!DOCTYPE svg PUBLIC "-//W3C//DTD SVG 1.1//EN" "http://www.w3.org/Graphics/SVG/1.1/DTD/svg11.dtd"><svg t="1586425955846" class="icon" viewBox="0 0 1024 1024" version="1.1" xmlns="http://www.w3.org/2000/svg" p-id="7026" xmlns:xlink="http://www.w3.org/1999/xlink" width="48" height="48"><defs><style type="text/css"></style></defs><path d="M929.487 65.386h-834.979c-42.896 0-77.673 34.771-77.673 77.673v252.432c0 46.969 33.356 86.143 77.673 95.14v390.31c0 42.893 34.774 77.673 77.673 77.673h679.631c42.896 0 77.673-34.78 77.673-77.673v-390.31c44.316-8.996 77.673-48.172 77.673-95.14v-252.432c0.002-42.901-34.771-77.673-77.67-77.673zM774.143 900.355h-155.345v-271.847c0-10.724 8.693-19.422 19.419-19.422h116.509c10.724 0 19.419 8.698 19.419 19.422v271.847zM871.234 861.527c0 21.442-17.389 38.828-38.836 38.828h-19.419v-291.267c0-21.442-17.387-38.836-38.836-38.836h-155.345c-21.449 0-38.836 17.392-38.836 38.836v291.267h-388.359c-21.449 0-38.836-17.386-38.836-38.828v-370.896c18.695-3.795 35.428-12.978 48.542-25.836 17.515 17.177 41.499 27.782 67.967 27.782h19.419c26.468 0 50.449-10.603 67.963-27.779 17.514 17.174 41.495 27.779 67.963 27.779h19.419c26.468 0 50.449-10.603 67.963-27.779 17.514 17.174 41.495 27.779 67.963 27.779h19.419c26.468 0 50.449-10.603 67.963-27.779 17.514 17.174 41.495 27.779 67.963 27.779h19.419c26.469 0 50.452-10.605 67.967-27.782 13.113 12.858 29.844 22.041 48.542 25.836v370.896zM948.906 385.779c0 26.81-21.735 48.548-48.545 48.548s-48.545-21.739-48.545-48.548v9.711c0-16.083-13.041-29.125-29.127-29.125s-29.127 13.041-29.127 29.125h-0.973c-4.499 22.157-24.086 38.836-47.571 38.836s-43.073-16.679-47.571-38.836h-0.973c0-16.083-13.041-29.125-29.127-29.125s-29.127 13.041-29.127 29.125h-0.973c-4.499 22.157-24.086 38.836-47.571 38.836s-43.073-16.679-47.571-38.836h-0.973c0-16.083-13.041-29.125-29.127-29.125s-29.127 13.041-29.127 29.125h-0.973c-4.499 22.157-24.086 38.836-47.571 38.836s-43.073-16.679-47.571-38.836h-0.973c0-16.083-13.041-29.125-29.127-29.125s-29.127 13.041-29.127 29.125h-0.973c-4.499 22.157-24.086 38.836-47.571 38.836s-43.073-16.679-47.571-38.836h-0.973c0-16.083-13.041-29.125-29.127-29.125s-29.127 13.041-29.127 29.125v-9.711c0 26.81-21.735 48.548-48.545 48.548s-48.545-21.739-48.545-48.548v-223.308c0-21.451 17.387-38.836 38.836-38.836h796.143c21.447 0 38.836 17.386 38.836 38.836v223.308z" p-id="7027" fill="#1afa29"></path></svg>